<svg width="16" height="13" fill="none" xmlns="http://www.w3.org/2000/svg"><path d="M7.97 13c-.187 0-.373-.095-.56-.19L.14 5.41a.464.464 0 0 1 0-.664L3.682.19c.093-.095.186-.19.373-.19h7.922c.187 0 .28.095.373.19l3.542 4.555c.187.19.094.474 0 .664L8.53 12.81c-.187.19-.373.19-.56.19zM1.164 5.03l6.804 6.926 6.805-6.927-3.076-3.985H4.24L1.165 5.029z" fill="#B2BCCA"/><path d="M15.426 4.65H.513v.949h14.913v-.95z" fill="#B2BCCA"/><path d="M7.224.76L6.012 5.218l1.957 5.978L9.927 5.22 8.715.759l.932-.285 1.305 4.65v.285L8.808 12.05c-.093.285-.372.57-.745.57s-.653-.19-.746-.57L5.173 5.41v-.285L6.478.474l.746.285z" fill="#B2BCCA"/></svg>