<svg width="16" height="15" viewBox="0 0 28 24" fill="none" xmlns="http://www.w3.org/2000/svg">
<path d="M5.78748 24C4.32023 24 2.85298 23.5188 1.71179 22.396C-0.570597 20.1504 -0.570597 16.6217 1.71179 14.3761L14.1019 2.34621C17.1994 -0.701358 22.4163 -0.861756 25.6769 2.34621C28.7744 5.39378 28.7744 10.5265 25.6769 13.7345L16.8734 22.396C16.5473 22.7168 16.0582 22.7168 15.7322 22.396C15.4061 22.0752 15.4061 21.594 15.7322 21.2732L24.5357 12.6117C27.1441 10.0453 27.1441 6.03538 24.5357 3.469C21.9272 0.902626 17.8515 0.902626 15.2431 3.469L3.01601 15.4989C1.38574 17.1029 1.38574 19.6692 3.01601 21.1128C4.64629 22.7168 7.25473 22.7168 8.72198 21.1128L19.8079 10.2057C20.46 9.56414 20.46 8.60175 19.8079 7.96016C19.1557 7.31856 18.1776 7.31856 17.5255 7.96016L9.86317 15.4989C9.53712 15.8197 9.04804 15.8197 8.72198 15.4989C8.39593 15.1781 8.39593 14.6969 8.72198 14.3761L16.3843 6.83737C17.6885 5.55418 19.6448 5.55418 20.9491 6.83737C22.2533 8.12055 22.2533 10.0453 20.9491 11.3285L9.86317 22.2356C8.72198 23.3584 7.25473 24 5.78748 24Z" fill="#81A6C3"/>
</svg>
