<svg width="16" height="14" viewBox="0 0 16 14" fill="currentColor" xmlns="http://www.w3.org/2000/svg">
<path d="M15.5 6.44687C15.7761 6.44687 16 6.69449 16 6.99994C16 7.30539 15.7761 7.55301 15.5 7.55301L0.5 7.55301C0.223858 7.55301 -3.1933e-07 7.30539 -3.05978e-07 6.99994C-2.92627e-07 6.69449 0.223858 6.44687 0.5 6.44687L15.5 6.44687Z" fill="#81A6C3"/>
<path d="M6.68197 13.0558C6.87723 13.2718 6.87723 13.622 6.68197 13.838C6.48671 14.054 6.17012 14.054 5.97486 13.838L0.318008 7.58074C0.122746 7.36475 0.122746 7.01457 0.318008 6.79858C0.51327 6.58259 0.829853 6.58259 1.02511 6.79858L6.68197 13.0558Z" fill="#81A6C3"/>
<path d="M1.02512 7.20136C0.829861 7.41734 0.513278 7.41734 0.318016 7.20136C0.122754 6.98537 0.122754 6.63519 0.318016 6.4192L5.97487 0.161959C6.17013 -0.0540274 6.48672 -0.0540276 6.68198 0.161959C6.87724 0.377945 6.87724 0.728128 6.68198 0.944114L1.02512 7.20136Z" fill="#81A6C3"/>
</svg>
