<svg width="16" height="16" viewBox="0 0 16 16" fill="none" xmlns="http://www.w3.org/2000/svg">
<path d="M15.3455 16C15.2 16 14.9091 16 14.7636 15.8539L0.218182 1.24201C-0.0727273 0.949771 -0.0727273 0.511416 0.218182 0.219178C0.509091 -0.0730594 0.945454 -0.0730594 1.23636 0.219178L15.7818 14.8311C16.0727 15.1233 16.0727 15.5616 15.7818 15.8539C15.7818 16 15.4909 16 15.3455 16Z" fill="white"/>
<path d="M0.8 16C0.654545 16 0.363636 16 0.218182 15.8539C-0.0727273 15.5616 -0.0727273 15.1233 0.218182 14.8311L14.7636 0.219178C15.0545 -0.0730594 15.4909 -0.0730594 15.7818 0.219178C16.0727 0.511416 16.0727 0.949771 15.7818 1.24201L1.23636 15.8539C1.23636 16 0.945454 16 0.8 16Z" fill="white"/>
</svg>
