<svg width="6" height="12" fill="none" xmlns="http://www.w3.org/2000/svg"><path d="M1.97 8.571v-.428c0-.62.09-1.127.27-1.524.181-.402.517-.825 1.008-1.27.682-.608 1.11-1.066 1.286-1.373.18-.307.27-.677.27-1.11 0-.54-.165-.956-.496-1.247-.326-.296-.797-.444-1.413-.444-.396 0-.782.05-1.158.15-.376.096-.807.273-1.293.532L0 .786A6.054 6.054 0 0 1 2.97 0c.957 0 1.702.249 2.233.746.531.497.797 1.198.797 2.103 0 .386-.05.728-.15 1.024a3.041 3.041 0 0 1-.429.833c-.19.26-.601.68-1.233 1.262-.506.455-.842.834-1.008 1.135-.16.302-.24.704-.24 1.207v.261h-.97zM1.6 10.93c0-.72.301-1.08.903-1.08.29 0 .514.093.669.278.16.185.24.452.24.802 0 .338-.08.603-.24.793-.16.185-.384.278-.67.278a.895.895 0 0 1-.646-.246c-.17-.17-.256-.444-.256-.825z" fill="#fff"/></svg>