<svg width="17" height="13" fill="none" xmlns="http://www.w3.org/2000/svg"><path d="M13.3 12.1H2.7C1.2 12.1 0 10.9 0 9.4V2.7C0 1.2 1.2 0 2.7 0h10.7c1.5 0 2.7 1.2 2.7 2.7v6.7c-.1 1.5-1.3 2.7-2.8 2.7zM2.7 1.1c-.9 0-1.7.8-1.7 1.7v6.7c0 .9.8 1.7 1.7 1.7h10.7c.9 0 1.7-.8 1.7-1.7V2.8c0-.9-.8-1.7-1.7-1.7H2.7z" fill="#B2BCCA"/><path d="M15.8 3.5L9.6 7.1c-.4.3-1 .4-1.6.4-.6 0-1.1-.1-1.6-.4L.2 3.5l.5-.9 6.2 3.6c.6.3 1.6.3 2.1 0l6.2-3.6.6.9z" fill="#B2BCCA"/><path d="M5.419 6.002l-.775-.632-4.3 5.267.775.633 4.3-5.268zM15.703 10.66l-4.3-5.268-.775.633 4.3 5.267.775-.632z" fill="#B2BCCA"/></svg>