<svg width="12" height="16" fill="none" xmlns="http://www.w3.org/2000/svg"><path d="M9.692 16H2.308C1.015 16 0 14.965 0 13.647V2.353C0 1.035 1.015 0 2.308 0H5.63C6 0 6.369.188 6.646.376l4.985 5.083c.277.282.369.659.369 1.035v7.153C12 14.965 10.985 16 9.692 16zM2.308.941C1.569.941.923 1.6.923 2.353v11.294c0 .753.646 1.412 1.385 1.412h7.384c.739 0 1.385-.659 1.385-1.412V6.494c0-.094-.092-.282-.092-.376L6 1.035C5.908.941 5.815.941 5.63.941H2.309z" fill="#B2BCCA"/><path d="M6.462.47v3.765c0 .753.646 1.412 1.384 1.412h3.693v.941H7.846c-1.292 0-2.308-1.035-2.308-2.353V.471h.924z" fill="#B2BCCA"/></svg>