<svg width="22" height="22" viewBox="0 0 17 16" fill="none" xmlns="http://www.w3.org/2000/svg">
<path d="M15.777 16C15.6294 16 15.3342 16 15.1866 15.8539L0.427262 1.24201C0.132075 0.949771 0.132075 0.511416 0.427262 0.219178C0.722449 -0.0730594 1.16523 -0.0730594 1.46042 0.219178L16.2198 14.8311C16.515 15.1233 16.515 15.5616 16.2198 15.8539C16.2198 16 15.9246 16 15.777 16Z" fill="#81A6C3"/>
<path d="M1.01764 16C0.870042 16 0.574856 16 0.427262 15.8539C0.132075 15.5616 0.132075 15.1233 0.427262 14.8311L15.1866 0.219178C15.4818 -0.0730594 15.9246 -0.0730594 16.2198 0.219178C16.515 0.511416 16.515 0.949771 16.2198 1.24201L1.46042 15.8539C1.46042 16 1.16523 16 1.01764 16Z" fill="#81A6C3"/>
</svg>
