<svg width="12" height="8" viewBox="0 0 12 8" fill="none" xmlns="http://www.w3.org/2000/svg">
<path d="M3.97143 5.79088C3.50043 6.22224 3.50043 6.92162 3.97143 7.35298C4.44243 7.78434 5.20606 7.78434 5.67706 7.35298L11.6468 1.88562C12.1177 1.45426 12.1177 0.754884 11.6468 0.323522C11.1758 -0.107841 10.4121 -0.107841 9.94112 0.323522L3.97143 5.79088Z" fill="#4A6C87"/>
<path d="M0.353247 4.55228C-0.117749 4.12091 -0.117749 3.42154 0.353247 2.99017C0.824243 2.55881 1.58788 2.55881 2.05887 2.99017L5.47013 6.11438C5.94113 6.54574 5.94113 7.24512 5.47013 7.67648C4.99913 8.10784 4.2355 8.10784 3.7645 7.67648L0.353247 4.55228Z" fill="#4A6C87"/>
</svg>
