<svg width="16" height="10" fill="none" xmlns="http://www.w3.org/2000/svg"><path d="M8 6.25c-1.333 0-2.4-1.16-2.4-2.679C5.6 2.054 6.667.893 8 .893s2.4 1.16 2.4 2.678S9.333 6.25 8 6.25zm0-4.464c-.8 0-1.511.803-1.511 1.785 0 .983.622 1.786 1.511 1.786.889 0 1.511-.803 1.511-1.786C9.511 2.59 8.8 1.786 8 1.786z" fill="#B2BCCA"/><path d="M8.978 5.09h.178a2.585 2.585 0 0 1 2.577 2.589v1.875c0 .267-.178.446-.444.446-.267 0-.445-.179-.445-.446V7.679c0-.893-.8-1.697-1.688-1.697h-.178V5.09zM7.022 5.982h-.178c-.888 0-1.688.804-1.688 1.697v1.875c0 .267-.178.446-.445.446s-.444-.179-.444-.446V7.679a2.585 2.585 0 0 1 2.577-2.59h.178v.893zM12.889 4.464c-1.067 0-2.044-.982-2.044-2.232 0-1.25.888-2.232 2.044-2.232 1.155 0 2.044.982 2.044 2.232 0 1.25-.977 2.232-2.044 2.232zm0-3.571c-.622 0-1.156.625-1.156 1.34 0 .713.534 1.338 1.156 1.338.622 0 1.155-.625 1.155-1.339S13.511.892 12.89.892z" fill="#B2BCCA"/><path d="M13.689 3.393h.178c1.155 0 2.133.982 2.133 2.143v1.518c0 .267-.178.446-.444.446-.267 0-.445-.179-.445-.446V5.536c0-.715-.533-1.25-1.244-1.25h-.178v-.893zM12.089 4.286h-.178c-.711 0-1.244.535-1.244 1.25 0 .268-.178.446-.445.446-.266 0-.444-.178-.444-.446 0-1.161.978-2.143 2.133-2.143h.178v.893zM3.111 4.464c-1.067 0-2.044-.982-2.044-2.232C1.067.982 1.956 0 3.11 0c1.156 0 2.045.982 2.045 2.232 0 1.25-.978 2.232-2.045 2.232zm0-3.571c-.622 0-1.155.625-1.155 1.34 0 .713.533 1.338 1.155 1.338s1.156-.625 1.156-1.339S3.733.892 3.11.892z" fill="#B2BCCA"/><path d="M3.911 3.393h.178c1.155 0 2.133.982 2.133 2.143 0 .268-.178.446-.444.446-.267 0-.445-.178-.445-.446 0-.715-.533-1.25-1.244-1.25H3.91v-.893zM2.311 4.286h-.178c-.71 0-1.244.535-1.244 1.25v1.518c0 .267-.178.446-.445.446C.178 7.5 0 7.321 0 7.054V5.536c0-1.161.978-2.143 2.133-2.143h.178v.893z" fill="#B2BCCA"/></svg>