<svg width="23" height="23" viewBox="0 0 23 23" fill="none" xmlns="http://www.w3.org/2000/svg">
<path d="M5.65662 5.65685C5.90656 5.40692 6.31178 5.40692 6.56172 5.65685L16.9703 16.0655C17.2203 16.3154 17.2203 16.7206 16.9703 16.9706C16.7204 17.2205 16.3152 17.2205 16.0652 16.9706L5.65662 6.56195C5.40669 6.31202 5.40669 5.90679 5.65662 5.65685Z" fill="#F26671"/>
<path d="M16.9703 5.65685C17.2203 5.90679 17.2203 6.31201 16.9703 6.56195L6.56172 16.9706C6.31178 17.2205 5.90656 17.2205 5.65662 16.9706C5.40669 16.7206 5.40669 16.3154 5.65662 16.0655L16.0652 5.65685C16.3152 5.40692 16.7204 5.40692 16.9703 5.65685Z" fill="#F26671"/>
</svg>
