<svg width="7" height="16" viewBox="0 0 7 16" fill="none" xmlns="http://www.w3.org/2000/svg">
<path d="M0.512196 -5.67182e-07C0.626017 -5.57231e-07 0.853659 -5.3733e-07 0.96748 0.122605L6.20325 5.76245C6.77236 6.37548 7 7.11111 7 7.96935C7 8.82759 6.65854 9.56322 6.20325 10.1762L0.967478 15.8161C0.739836 16.0613 0.398374 16.0613 0.170732 15.8161C-0.0569105 15.5709 -0.0569104 15.2031 0.170732 14.9579L5.4065 9.31801C6.08943 8.58238 6.08943 7.47893 5.4065 6.74329L0.170733 1.10345C-0.0569092 0.858237 -0.0569092 0.490422 0.170733 0.245211C0.170733 3.56641e-07 0.398375 -5.77133e-07 0.512196 -5.67182e-07Z" fill="white"/>
</svg>
