<svg width="11" height="8" viewBox="0 0 11 8" fill="none" xmlns="http://www.w3.org/2000/svg">
<path d="M3.70708 5.53555C3.31655 5.92607 3.31655 6.55924 3.70708 6.94976C4.0976 7.34029 4.73077 7.34029 5.12129 6.94976L10.071 2.00001C10.4616 1.60949 10.4616 0.976325 10.071 0.585801C9.68051 0.195277 9.04735 0.195277 8.65683 0.585801L3.70708 5.53555Z" fill="white"/>
<path d="M0.707078 4.41421C0.316554 4.02368 0.316553 3.39052 0.707078 3C1.0976 2.60947 1.73077 2.60947 2.12129 3L4.94972 5.82842C5.34024 6.21895 5.34024 6.85211 4.94972 7.24264C4.55919 7.63316 3.92603 7.63316 3.5355 7.24264L0.707078 4.41421Z" fill="white"/>
</svg>
