<svg width="16" height="4" viewBox="0 0 16 4" fill="none" xmlns="http://www.w3.org/2000/svg">
<path d="M16 1.6C16 2.48366 15.2837 3.2 14.4 3.2C13.5163 3.2 12.8 2.48366 12.8 1.6C12.8 0.716344 13.5163 0 14.4 0C15.2837 0 16 0.716344 16 1.6Z" fill="#4A6C87"/>
<path d="M9.6 1.6C9.6 2.48366 8.88366 3.2 8 3.2C7.11634 3.2 6.4 2.48366 6.4 1.6C6.4 0.716344 7.11634 0 8 0C8.88366 0 9.6 0.716344 9.6 1.6Z" fill="#4A6C87"/>
<path d="M3.2 1.6C3.2 2.48366 2.48366 3.2 1.6 3.2C0.716344 3.2 0 2.48366 0 1.6C0 0.716344 0.716344 0 1.6 0C2.48366 0 3.2 0.716344 3.2 1.6Z" fill="#4A6C87"/>
</svg>
