<svg width="17" height="17" viewBox="0 0 17 17" fill="none" xmlns="http://www.w3.org/2000/svg">
<path d="M8.20629 0.314431C8.55972 0.30968 8.85008 0.59234 8.85483 0.945771L9.0527 15.6644C9.05745 16.0179 8.77479 16.3082 8.42136 16.313C8.06793 16.3177 7.77756 16.0351 7.77281 15.6816L7.57495 0.962976C7.5702 0.609546 7.85286 0.319182 8.20629 0.314431Z" fill="#B2BCCA"/>
<path d="M16.3131 8.20617C16.3179 8.5596 16.0352 8.84997 15.6818 8.85472L0.963091 9.05258C0.60966 9.05733 0.319297 8.77467 0.314546 8.42124C0.309795 8.06781 0.592455 7.77745 0.945885 7.7727L15.6646 7.57484C16.018 7.57008 16.3083 7.85274 16.3131 8.20617Z" fill="#B2BCCA"/>
</svg>
