<svg width="14" height="14" viewBox="0 0 14 14" fill="none" xmlns="http://www.w3.org/2000/svg">
<path d="M13.4273 14C13.3 14 13.0455 14 12.9182 13.8721L0.190909 1.08676C-0.0636364 0.83105 -0.0636364 0.447489 0.190909 0.191781C0.445455 -0.0639269 0.827273 -0.0639269 1.08182 0.191781L13.8091 12.9772C14.0636 13.2329 14.0636 13.6164 13.8091 13.8721C13.8091 14 13.5545 14 13.4273 14Z" fill="#B2BCCA"/>
<path d="M0.7 14C0.572727 14 0.318182 14 0.190909 13.8721C-0.0636364 13.6164 -0.0636364 13.2329 0.190909 12.9772L12.9182 0.191781C13.1727 -0.0639269 13.5545 -0.0639269 13.8091 0.191781C14.0636 0.447489 14.0636 0.83105 13.8091 1.08676L1.08182 13.8721C1.08182 14 0.827272 14 0.7 14Z" fill="#B2BCCA"/>
</svg>
