<svg width="10" height="16" viewBox="0 0 10 16" fill="none" xmlns="http://www.w3.org/2000/svg">
<path d="M0.499999 10.6273C0.61111 10.6273 0.833332 10.6273 0.944443 10.7454L4.61111 14.6421C4.83333 14.8782 5.16667 14.8782 5.38889 14.6421L9.05556 10.7454C9.27778 10.5092 9.61111 10.5092 9.83333 10.7454C10.0556 10.9815 10.0556 11.3358 9.83333 11.572L6.16667 15.4686C5.5 16.1771 4.5 16.1771 3.83333 15.4686L0.166666 11.572C-0.0555559 11.3358 -0.0555559 10.9815 0.166666 10.7454C0.166666 10.7454 0.388888 10.6273 0.499999 10.6273Z" fill="#B2BCCA"/>
<path d="M4.94446 5.11705e-07C5.27779 5.40846e-07 5.50001 0.236163 5.50001 0.590407L5.50001 14.7602C5.50001 15.1144 5.27779 15.3506 4.94446 15.3506C4.61112 15.3506 4.3889 15.1144 4.3889 14.7602L4.3889 0.590407C4.3889 0.354244 4.61112 4.82564e-07 4.94446 5.11705e-07Z" fill="#B2BCCA"/>
</svg>
