<svg width="13" height="16" viewBox="0 0 13 16" fill="none" xmlns="http://www.w3.org/2000/svg">
<path d="M2.94939 16V15.0588H3.4712C3.97033 15.0588 4.4014 14.9767 4.7644 14.8123C5.14252 14.6331 5.33159 14.2148 5.33159 13.5574V1.12045H3.15358C2.48807 1.12045 2.02676 1.30719 1.76963 1.68067C1.51251 2.03922 1.35369 2.46499 1.29319 2.95798L1.17976 3.92157H0L0.113438 0H12.8866L13 3.92157H11.8202L11.7068 2.95798C11.6463 2.46499 11.4875 2.03922 11.2304 1.68067C10.9732 1.30719 10.5044 1.12045 9.82373 1.12045H7.62304V13.4454C7.62304 14.1475 7.80454 14.5957 8.16754 14.7899C8.53054 14.9692 8.96917 15.0588 9.48342 15.0588H10.0052V16H2.94939Z" fill="#B2BCCA"/>
</svg>
