<svg width="12" height="16" viewBox="0 0 12 16" fill="none" xmlns="http://www.w3.org/2000/svg">
<path d="M0 0H5.0369C7.3321 0 8.99631 0.324669 10.0295 0.974008C11.0701 1.61605 11.5904 2.64113 11.5904 4.04925C11.5904 5.00502 11.3616 5.78933 10.9041 6.40219C10.4539 7.01505 9.8524 7.38349 9.09963 7.50752V7.61696C10.1255 7.84314 10.8635 8.2663 11.3137 8.88646C11.7712 9.50661 12 10.3311 12 11.3598C12 12.819 11.4649 13.9571 10.3948 14.7743C9.3321 15.5914 7.88561 16 6.05535 16H0V0ZM3.43173 6.33653H5.42435C6.35424 6.33653 7.02583 6.19425 7.43911 5.90971C7.85978 5.62517 8.07011 5.15458 8.07011 4.49795C8.07011 3.88509 7.84133 3.44733 7.38376 3.18468C6.93358 2.91473 6.21771 2.77975 5.23616 2.77975H3.43173V6.33653ZM3.43173 9.02873V13.1984H5.6679C6.61255 13.1984 7.30996 13.0196 7.76015 12.6621C8.21033 12.3046 8.43542 11.7574 8.43542 11.0205C8.43542 9.69266 7.47602 9.02873 5.5572 9.02873H3.43173Z" fill="#B2BCCA"/>
</svg>
