<svg width="16" height="13" viewBox="0 0 16 13" fill="none" xmlns="http://www.w3.org/2000/svg">
<path d="M5.33333 3.79167C5.33333 2.89453 4.61667 2.16667 3.73333 2.16667C2.85 2.16667 2.13333 2.89453 2.13333 3.79167C2.13333 4.6888 2.85 5.41667 3.73333 5.41667C4.61667 5.41667 5.33333 4.6888 5.33333 3.79167ZM13.8667 7.04167L10.4 3.52083L6.13333 7.85417L4.8 6.5L2.13333 9.20833V10.8333H13.8667V7.04167ZM14.6667 1.08333C14.8083 1.08333 14.9333 1.21029 14.9333 1.35417V11.6458C14.9333 11.7897 14.8083 11.9167 14.6667 11.9167H1.33333C1.19167 11.9167 1.06667 11.7897 1.06667 11.6458V1.35417C1.06667 1.21029 1.19167 1.08333 1.33333 1.08333H14.6667ZM16 1.35417C16 0.609375 15.4 0 14.6667 0H1.33333C0.6 0 0 0.609375 0 1.35417V11.6458C0 12.3906 0.6 13 1.33333 13H14.6667C15.4 13 16 12.3906 16 11.6458V1.35417Z" fill="#B2BCCA"/>
</svg>
