<svg width="16" height="13" viewBox="0 0 16 13" fill="none" xmlns="http://www.w3.org/2000/svg">
<path d="M4.92308 11.5227C4.92308 11.6889 4.78846 11.8182 4.61538 11.8182H1.53846C1.36538 11.8182 1.23077 11.6889 1.23077 11.5227V9.75C1.23077 9.58381 1.36538 9.45455 1.53846 9.45455H4.61538C4.78846 9.45455 4.92308 9.58381 4.92308 9.75V11.5227ZM4.92308 7.97727C4.92308 8.14347 4.78846 8.27273 4.61538 8.27273H1.53846C1.36538 8.27273 1.23077 8.14347 1.23077 7.97727V6.20455C1.23077 6.03835 1.36538 5.90909 1.53846 5.90909H4.61538C4.78846 5.90909 4.92308 6.03835 4.92308 6.20455V7.97727ZM9.84615 11.5227C9.84615 11.6889 9.71154 11.8182 9.53846 11.8182H6.46154C6.28846 11.8182 6.15385 11.6889 6.15385 11.5227V9.75C6.15385 9.58381 6.28846 9.45455 6.46154 9.45455H9.53846C9.71154 9.45455 9.84615 9.58381 9.84615 9.75V11.5227ZM4.92308 4.43182C4.92308 4.59801 4.78846 4.72727 4.61538 4.72727H1.53846C1.36538 4.72727 1.23077 4.59801 1.23077 4.43182V2.65909C1.23077 2.4929 1.36538 2.36364 1.53846 2.36364H4.61538C4.78846 2.36364 4.92308 2.4929 4.92308 2.65909V4.43182ZM9.84615 7.97727C9.84615 8.14347 9.71154 8.27273 9.53846 8.27273H6.46154C6.28846 8.27273 6.15385 8.14347 6.15385 7.97727V6.20455C6.15385 6.03835 6.28846 5.90909 6.46154 5.90909H9.53846C9.71154 5.90909 9.84615 6.03835 9.84615 6.20455V7.97727ZM14.7692 11.5227C14.7692 11.6889 14.6346 11.8182 14.4615 11.8182H11.3846C11.2115 11.8182 11.0769 11.6889 11.0769 11.5227V9.75C11.0769 9.58381 11.2115 9.45455 11.3846 9.45455H14.4615C14.6346 9.45455 14.7692 9.58381 14.7692 9.75V11.5227ZM9.84615 4.43182C9.84615 4.59801 9.71154 4.72727 9.53846 4.72727H6.46154C6.28846 4.72727 6.15385 4.59801 6.15385 4.43182V2.65909C6.15385 2.4929 6.28846 2.36364 6.46154 2.36364H9.53846C9.71154 2.36364 9.84615 2.4929 9.84615 2.65909V4.43182ZM14.7692 7.97727C14.7692 8.14347 14.6346 8.27273 14.4615 8.27273H11.3846C11.2115 8.27273 11.0769 8.14347 11.0769 7.97727V6.20455C11.0769 6.03835 11.2115 5.90909 11.3846 5.90909H14.4615C14.6346 5.90909 14.7692 6.03835 14.7692 6.20455V7.97727ZM14.7692 4.43182C14.7692 4.59801 14.6346 4.72727 14.4615 4.72727H11.3846C11.2115 4.72727 11.0769 4.59801 11.0769 4.43182V2.65909C11.0769 2.4929 11.2115 2.36364 11.3846 2.36364H14.4615C14.6346 2.36364 14.7692 2.4929 14.7692 2.65909V4.43182ZM16 1.47727C16 0.664773 15.3077 0 14.4615 0H1.53846C0.692308 0 0 0.664773 0 1.47727V11.5227C0 12.3352 0.692308 13 1.53846 13H14.4615C15.3077 13 16 12.3352 16 11.5227V1.47727Z" fill="#B2BCCA"/>
</svg>
