<svg width="10" height="16" viewBox="0 0 10 16" fill="none" xmlns="http://www.w3.org/2000/svg">
<path d="M9.5 5.3727C9.38889 5.3727 9.16667 5.3727 9.05556 5.25462L5.38889 1.35793C5.16667 1.12177 4.83333 1.12177 4.61111 1.35793L0.944443 5.25462C0.722221 5.49078 0.388889 5.49078 0.166667 5.25462C-0.0555556 5.01845 -0.0555556 4.66421 0.166667 4.42805L3.83333 0.531366C4.5 -0.177122 5.5 -0.177122 6.16667 0.531366L9.83333 4.42805C10.0556 4.66421 10.0556 5.01845 9.83333 5.25462C9.83333 5.25462 9.61111 5.3727 9.5 5.3727Z" fill="#B2BCCA"/>
<path d="M5.05554 16C4.72221 16 4.49999 15.7638 4.49999 15.4096L4.49999 1.23984C4.49999 0.885595 4.72221 0.649433 5.05554 0.649433C5.38888 0.649433 5.6111 0.885595 5.6111 1.23984L5.6111 15.4096C5.6111 15.6458 5.38888 16 5.05554 16Z" fill="#B2BCCA"/>
</svg>
