<svg width="16" height="16" viewBox="0 0 16 16" fill="none" xmlns="http://www.w3.org/2000/svg">
<path d="M14.1176 11.7647C14.1176 12.0098 14.0196 12.2451 13.8431 12.4216L12.402 13.8529C12.2255 14.0196 11.9804 14.1078 11.7353 14.1078C11.4902 14.1078 11.2451 14.0196 11.0686 13.8431L9.04902 11.8137C8.87255 11.6373 8.77451 11.3922 8.77451 11.1471C8.77451 10.8529 8.89216 10.6274 9.09804 10.4314C9.42157 10.7549 9.69608 11.1373 10.1961 11.1373C10.7157 11.1373 11.1373 10.7157 11.1373 10.1961C11.1373 9.69608 10.7549 9.42157 10.4314 9.09804C10.6275 8.89216 10.8529 8.78431 11.1373 8.78431C11.3824 8.78431 11.6274 8.88235 11.8039 9.05882L13.8431 11.098C14.0196 11.2745 14.1176 11.5098 14.1176 11.7647ZM7.22549 4.85294C7.22549 5.14706 7.10784 5.37255 6.90196 5.56863C6.57843 5.2451 6.30392 4.86275 5.80392 4.86275C5.28431 4.86275 4.86275 5.28431 4.86275 5.80392C4.86275 6.30392 5.2451 6.57843 5.56863 6.90196C5.37255 7.10784 5.14706 7.20588 4.86275 7.20588C4.61765 7.20588 4.37255 7.11765 4.19608 6.94118L2.15686 4.90196C1.98039 4.72549 1.88235 4.4902 1.88235 4.23529C1.88235 3.9902 1.98039 3.7549 2.15686 3.57843L3.59804 2.14706C3.77451 1.98039 4.01961 1.88235 4.26471 1.88235C4.5098 1.88235 4.7549 1.98039 4.93137 2.15686L6.95098 4.18627C7.12745 4.36274 7.22549 4.60784 7.22549 4.85294ZM16 11.7647C16 11.0098 15.7157 10.3039 15.1765 9.76471L13.1373 7.72549C12.6078 7.19608 11.8824 6.90196 11.1373 6.90196C10.3627 6.90196 9.63725 7.21569 9.09804 7.76471L8.23529 6.90196C8.78431 6.36275 9.09804 5.62745 9.09804 4.85294C9.09804 4.10784 8.81373 3.39216 8.28431 2.86275L6.26471 0.833333C5.73529 0.294118 5.01961 0 4.26471 0C3.51961 0 2.80392 0.284313 2.27451 0.813726L0.833333 2.2451C0.303922 2.76471 0 3.4902 0 4.23529C0 4.9902 0.284314 5.69608 0.823529 6.23529L2.86275 8.27451C3.39216 8.80392 4.11765 9.09804 4.86275 9.09804C5.63725 9.09804 6.36275 8.78431 6.90196 8.23529L7.76471 9.09804C7.21569 9.63726 6.90196 10.3726 6.90196 11.1471C6.90196 11.8922 7.18627 12.6078 7.71569 13.1373L9.73529 15.1667C10.2647 15.7059 10.9804 16 11.7353 16C12.4804 16 13.1961 15.7157 13.7255 15.1863L15.1667 13.7549C15.6961 13.2353 16 12.5098 16 11.7647Z" fill="#B2BCCA"/>
</svg>
