<svg width="16" height="15" viewBox="0 0 16 15" fill="none" xmlns="http://www.w3.org/2000/svg">
<rect x="6" y="12" width="10" height="2" rx="1" fill="#B2BCCA"/>
<rect x="6" y="7" width="10" height="2" rx="1" fill="#B2BCCA"/>
<rect x="6" y="2" width="10" height="2" rx="1" fill="#B2BCCA"/>
<path d="M2.89209 5H1.83594V2.1084L1.84619 1.6333L1.86328 1.11377C1.68783 1.28923 1.56592 1.4043 1.49756 1.45898L0.92334 1.92041L0.414062 1.28467L2.02393 0.00292969H2.89209V5Z" fill="#B2BCCA"/>
<path d="M3.77344 15H0.280273V14.2651L1.53467 12.9971C1.90609 12.6165 2.14876 12.3534 2.2627 12.2075C2.37663 12.0594 2.45866 11.9227 2.50879 11.7974C2.55892 11.672 2.58398 11.5422 2.58398 11.4077C2.58398 11.2072 2.52816 11.0579 2.4165 10.96C2.30713 10.862 2.16016 10.813 1.97559 10.813C1.7819 10.813 1.59391 10.8574 1.41162 10.9463C1.22933 11.0352 1.03906 11.1616 0.84082 11.3257L0.266602 10.6455C0.512695 10.4359 0.716634 10.2878 0.878418 10.2012C1.0402 10.1146 1.2168 10.0485 1.4082 10.0029C1.59961 9.95508 1.8138 9.93115 2.05078 9.93115C2.36296 9.93115 2.63867 9.98812 2.87793 10.1021C3.11719 10.216 3.3029 10.3755 3.43506 10.5806C3.56722 10.7856 3.6333 11.0203 3.6333 11.2847C3.6333 11.5148 3.59229 11.7313 3.51025 11.9341C3.4305 12.1346 3.30518 12.3408 3.13428 12.5527C2.96566 12.7646 2.66716 13.0666 2.23877 13.4585L1.59619 14.0635V14.1113H3.77344V15Z" fill="#B2BCCA"/>
</svg>
