<svg width="16" height="16" viewBox="0 0 16 16" fill="none" xmlns="http://www.w3.org/2000/svg">
<path d="M3.37615 12.9899C3.37615 13.5991 3.53381 14.0411 3.84913 14.3158C4.16989 14.5905 4.63744 14.7339 5.25178 14.7458V16C4.21882 15.9881 3.41964 15.7283 2.85423 15.2206C2.28882 14.713 2.00612 13.9993 2.00612 13.0795V10.3651C2.00612 9.74393 1.83486 9.30198 1.49235 9.03919C1.14985 8.77044 0.652395 8.63606 0 8.63606V7.3729C0.706762 7.36096 1.2178 7.21762 1.53313 6.94289C1.84845 6.66816 2.00612 6.24412 2.00612 5.67077V2.92945C2.00612 2.00373 2.29969 1.28406 2.88685 0.770437C3.47401 0.256812 4.26232 0 5.25178 0V1.24524C4.00136 1.28108 3.37615 1.87533 3.37615 3.028V5.67077C3.37615 6.95483 2.76996 7.71333 1.55759 7.94625V8.05375C2.76996 8.28667 3.37615 9.04517 3.37615 10.3292V12.9899Z" fill="#B2BCCA"/>
<path d="M14.4261 7.94625C13.2137 7.71333 12.6075 6.95483 12.6075 5.67077V3.028C12.6075 1.87533 11.9905 1.28108 10.7564 1.24524V0C11.7567 0 12.5423 0.259798 13.1131 0.779395C13.6894 1.29899 13.9776 2.01568 13.9776 2.92945V5.67077C13.9776 6.25009 14.138 6.67712 14.4587 6.95185C14.7795 7.2206 15.2932 7.36096 16 7.3729V8.63606C15.3367 8.63606 14.8338 8.77044 14.4913 9.03919C14.1488 9.30198 13.9776 9.74393 13.9776 10.3651V13.0795C13.9776 13.9933 13.6976 14.704 13.1376 15.2116C12.5831 15.7253 11.7893 15.9881 10.7564 16V14.7458C11.3598 14.7339 11.8192 14.5905 12.1346 14.3158C12.4499 14.0411 12.6075 13.5991 12.6075 12.9899V10.3292C12.6075 9.64838 12.7571 9.12878 13.0561 8.77044C13.3551 8.41209 13.8118 8.1732 14.4261 8.05375V7.94625Z" fill="#B2BCCA"/>
</svg>
