<svg width="16" height="16" viewBox="0 0 16 16" fill="none" xmlns="http://www.w3.org/2000/svg">
<path d="M0.0853978 14.93C0.0132263 15.0047 -0.015918 15.1125 0.008451 15.2146C0.03282 15.3167 0.107256 15.3985 0.204978 15.4307L1.89072 15.9855C1.92041 15.9953 1.95088 16 1.98106 16C2.05874 16 2.1347 15.9686 2.19107 15.9103L2.54322 15.5458L1.01669 13.966L0.0853978 14.93Z" fill="#B2BCCA"/>
<path d="M1.27047 13.0818L3.35577 15.24C4.16772 14.5135 5.03757 14.132 5.8927 14.132C6.25966 14.132 6.62081 14.2049 6.96828 14.3477L2.13008 9.34053C2.58728 10.5346 2.27634 11.8722 1.27047 13.0818Z" fill="#B2BCCA"/>
<path d="M15.9145 3.07051L13.0343 0.0897394C12.9271 -0.0212216 12.755 -0.0304473 12.637 0.0685656L2.50264 8.57913L7.70785 13.9661L15.935 3.47261C16.0289 3.35278 16.0202 3.17981 15.9145 3.07051Z" fill="#B2BCCA"/>
</svg>
