<svg width="4" height="16" viewBox="0 0 4 16" fill="none" xmlns="http://www.w3.org/2000/svg">
<path d="M2.56431 10.9242H0.689562L0.129293 0H3.1138L2.56431 10.9242ZM0 14.3474C0 13.818 0.140067 13.4174 0.420202 13.1455C0.700337 12.8665 1.09899 12.727 1.61616 12.727C2.12615 12.727 2.51762 12.8701 2.79057 13.1563C3.06352 13.4424 3.2 13.8395 3.2 14.3474C3.2 14.8554 3.05993 15.2596 2.7798 15.56C2.50685 15.8533 2.11897 16 1.61616 16C1.10617 16 0.70752 15.8569 0.420202 15.5708C0.140067 15.2846 0 14.8768 0 14.3474Z" fill="#F26671"/>
</svg>
