<svg width="17" height="17" viewBox="0 0 17 17" fill="none" xmlns="http://www.w3.org/2000/svg">
<path d="M14.1422 4.94979C14.5327 4.55926 15.1659 4.55926 15.5564 4.94979C15.9469 5.34031 15.9469 5.97348 15.5564 6.364L6.364 15.5564C5.97348 15.9469 5.34031 15.9469 4.94979 15.5564C4.55927 15.1659 4.55927 14.5327 4.94979 14.1422L14.1422 4.94979Z" fill="#4DAF7C"/>
<path d="M0.707107 11.3137C0.316583 10.9232 0.316582 10.29 0.707107 9.89949C1.09763 9.50897 1.7308 9.50897 2.12132 9.89949L6.36396 14.1421C6.75449 14.5327 6.75453 15.1659 6.364 15.5564C5.97348 15.9469 5.34031 15.9469 4.94979 15.5564L0.707107 11.3137Z" fill="#4DAF7C"/>
</svg>
